<mxfile host="app.diagrams.net" modified="2023-09-24T14:32:00.563Z" agent="Mozilla/5.0 (Windows NT 10.0; Win64; x64) AppleWebKit/537.36 (KHTML, like Gecko) Chrome/114.0.0.0 YaBrowser/23.7.5.734 Yowser/2.5 Safari/537.36" etag="AOvh5S_tchmKb_dPgdXD" version="21.8.2" type="github" pages="2">
  <diagram name="task" id="u8XtK2LKnwl4e7C27-f5">
    <mxGraphModel dx="1386" dy="801" grid="1" gridSize="10" guides="1" tooltips="1" connect="1" arrows="0" fold="1" page="1" pageScale="1" pageWidth="827" pageHeight="1169" math="0" shadow="0">
      <root>
        <mxCell id="0" />
        <mxCell id="1" parent="0" />
        <mxCell id="BvzGJXMLHEj37eEvo-op-20" style="edgeStyle=orthogonalEdgeStyle;rounded=0;orthogonalLoop=1;jettySize=auto;html=1;exitX=0.58;exitY=0.935;exitDx=0;exitDy=0;exitPerimeter=0;endArrow=none;endFill=0;" parent="1" source="BvzGJXMLHEj37eEvo-op-2" edge="1">
          <mxGeometry relative="1" as="geometry">
            <mxPoint x="120.47619047619048" y="400" as="targetPoint" />
          </mxGeometry>
        </mxCell>
        <mxCell id="BvzGJXMLHEj37eEvo-op-23" style="edgeStyle=orthogonalEdgeStyle;rounded=0;orthogonalLoop=1;jettySize=auto;html=1;exitX=0.58;exitY=0.135;exitDx=0;exitDy=0;exitPerimeter=0;entryX=0;entryY=0.5;entryDx=0;entryDy=0;entryPerimeter=0;endArrow=none;endFill=0;" parent="1" source="BvzGJXMLHEj37eEvo-op-2" target="BvzGJXMLHEj37eEvo-op-7" edge="1">
          <mxGeometry relative="1" as="geometry">
            <Array as="points">
              <mxPoint x="121" y="240" />
              <mxPoint x="280" y="240" />
            </Array>
          </mxGeometry>
        </mxCell>
        <mxCell id="BvzGJXMLHEj37eEvo-op-2" value="" style="pointerEvents=1;verticalLabelPosition=bottom;shadow=0;dashed=0;align=center;html=1;verticalAlign=top;shape=mxgraph.electrical.signal_sources.dc_source_1;fillColor=#f8cecc;strokeColor=#b85450;" parent="1" vertex="1">
          <mxGeometry x="80" y="275" width="70" height="75" as="geometry" />
        </mxCell>
        <mxCell id="BvzGJXMLHEj37eEvo-op-33" style="edgeStyle=orthogonalEdgeStyle;rounded=0;orthogonalLoop=1;jettySize=auto;html=1;exitX=0.5;exitY=1;exitDx=0;exitDy=0;endArrow=oval;endFill=1;" parent="1" source="BvzGJXMLHEj37eEvo-op-5" edge="1">
          <mxGeometry relative="1" as="geometry">
            <mxPoint x="390" y="560" as="targetPoint" />
            <Array as="points">
              <mxPoint x="535" y="560" />
            </Array>
          </mxGeometry>
        </mxCell>
        <mxCell id="BvzGJXMLHEj37eEvo-op-34" style="edgeStyle=orthogonalEdgeStyle;rounded=0;orthogonalLoop=1;jettySize=auto;html=1;exitX=0.5;exitY=0;exitDx=0;exitDy=0;endArrow=oval;endFill=1;" parent="1" source="BvzGJXMLHEj37eEvo-op-5" edge="1">
          <mxGeometry relative="1" as="geometry">
            <mxPoint x="390" y="240" as="targetPoint" />
            <Array as="points">
              <mxPoint x="535" y="240" />
              <mxPoint x="390" y="240" />
            </Array>
          </mxGeometry>
        </mxCell>
        <mxCell id="BvzGJXMLHEj37eEvo-op-5" value="V" style="verticalLabelPosition=middle;shadow=0;dashed=0;align=center;html=1;verticalAlign=middle;strokeWidth=1;shape=ellipse;aspect=fixed;fontSize=50;fillColor=#bac8d3;strokeColor=#23445d;" parent="1" vertex="1">
          <mxGeometry x="500" y="360" width="70" height="70" as="geometry" />
        </mxCell>
        <mxCell id="BvzGJXMLHEj37eEvo-op-28" style="edgeStyle=orthogonalEdgeStyle;rounded=0;orthogonalLoop=1;jettySize=auto;html=1;exitX=0;exitY=0.5;exitDx=0;exitDy=0;exitPerimeter=0;endArrow=none;endFill=0;" parent="1" source="BvzGJXMLHEj37eEvo-op-6" edge="1">
          <mxGeometry relative="1" as="geometry">
            <mxPoint x="280" y="560" as="targetPoint" />
            <Array as="points">
              <mxPoint x="390" y="560" />
            </Array>
          </mxGeometry>
        </mxCell>
        <mxCell id="BvzGJXMLHEj37eEvo-op-32" style="edgeStyle=orthogonalEdgeStyle;rounded=0;orthogonalLoop=1;jettySize=auto;html=1;exitX=1;exitY=0.5;exitDx=0;exitDy=0;exitPerimeter=0;endArrow=oval;endFill=1;" parent="1" source="BvzGJXMLHEj37eEvo-op-6" edge="1">
          <mxGeometry relative="1" as="geometry">
            <mxPoint x="280" y="690" as="targetPoint" />
            <Array as="points">
              <mxPoint x="390" y="690" />
            </Array>
          </mxGeometry>
        </mxCell>
        <mxCell id="BvzGJXMLHEj37eEvo-op-6" value="" style="pointerEvents=1;verticalLabelPosition=bottom;shadow=0;dashed=0;align=center;html=1;verticalAlign=top;shape=mxgraph.electrical.resistors.resistor_1;direction=south;fillColor=#fff2cc;strokeColor=#d6b656;" parent="1" vertex="1">
          <mxGeometry x="380" y="580" width="20" height="100" as="geometry" />
        </mxCell>
        <mxCell id="BvzGJXMLHEj37eEvo-op-24" style="edgeStyle=orthogonalEdgeStyle;rounded=0;orthogonalLoop=1;jettySize=auto;html=1;exitX=1;exitY=0.5;exitDx=0;exitDy=0;exitPerimeter=0;endArrow=oval;endFill=1;" parent="1" source="BvzGJXMLHEj37eEvo-op-7" edge="1">
          <mxGeometry relative="1" as="geometry">
            <mxPoint x="280" y="410" as="targetPoint" />
          </mxGeometry>
        </mxCell>
        <mxCell id="BvzGJXMLHEj37eEvo-op-7" value="" style="pointerEvents=1;verticalLabelPosition=bottom;shadow=0;dashed=0;align=center;html=1;verticalAlign=top;shape=mxgraph.electrical.resistors.resistor_1;direction=south;fillColor=#fff2cc;strokeColor=#d6b656;" parent="1" vertex="1">
          <mxGeometry x="270" y="270" width="20" height="100" as="geometry" />
        </mxCell>
        <mxCell id="BvzGJXMLHEj37eEvo-op-25" style="edgeStyle=orthogonalEdgeStyle;rounded=0;orthogonalLoop=1;jettySize=auto;html=1;exitX=0;exitY=0.5;exitDx=0;exitDy=0;exitPerimeter=0;endArrow=oval;endFill=1;" parent="1" source="BvzGJXMLHEj37eEvo-op-8" edge="1">
          <mxGeometry relative="1" as="geometry">
            <mxPoint x="280" y="240" as="targetPoint" />
            <Array as="points">
              <mxPoint x="390" y="240" />
              <mxPoint x="280" y="240" />
            </Array>
          </mxGeometry>
        </mxCell>
        <mxCell id="BvzGJXMLHEj37eEvo-op-42" style="edgeStyle=orthogonalEdgeStyle;rounded=0;orthogonalLoop=1;jettySize=auto;html=1;exitX=1;exitY=0.5;exitDx=0;exitDy=0;exitPerimeter=0;endArrow=none;endFill=0;" parent="1" source="BvzGJXMLHEj37eEvo-op-8" edge="1">
          <mxGeometry relative="1" as="geometry">
            <mxPoint x="390.2857142857142" y="560" as="targetPoint" />
          </mxGeometry>
        </mxCell>
        <mxCell id="BvzGJXMLHEj37eEvo-op-8" value="" style="pointerEvents=1;verticalLabelPosition=bottom;shadow=0;dashed=0;align=center;html=1;verticalAlign=top;shape=mxgraph.electrical.resistors.resistor_1;direction=south;fillColor=#fff2cc;strokeColor=#d6b656;" parent="1" vertex="1">
          <mxGeometry x="380" y="305" width="20" height="100" as="geometry" />
        </mxCell>
        <mxCell id="BvzGJXMLHEj37eEvo-op-17" style="edgeStyle=orthogonalEdgeStyle;rounded=0;orthogonalLoop=1;jettySize=auto;html=1;exitX=0;exitY=0.5;exitDx=0;exitDy=0;exitPerimeter=0;entryX=0;entryY=0.5;entryDx=0;entryDy=0;entryPerimeter=0;endArrow=none;endFill=0;" parent="1" source="BvzGJXMLHEj37eEvo-op-13" target="BvzGJXMLHEj37eEvo-op-16" edge="1">
          <mxGeometry relative="1" as="geometry" />
        </mxCell>
        <mxCell id="BvzGJXMLHEj37eEvo-op-18" style="edgeStyle=orthogonalEdgeStyle;rounded=0;orthogonalLoop=1;jettySize=auto;html=1;exitX=1;exitY=0.5;exitDx=0;exitDy=0;exitPerimeter=0;endArrow=oval;endFill=1;" parent="1" source="BvzGJXMLHEj37eEvo-op-13" edge="1">
          <mxGeometry relative="1" as="geometry">
            <mxPoint x="120" y="410" as="targetPoint" />
          </mxGeometry>
        </mxCell>
        <mxCell id="BvzGJXMLHEj37eEvo-op-13" value="" style="pointerEvents=1;verticalLabelPosition=bottom;shadow=0;dashed=0;align=center;html=1;verticalAlign=top;shape=mxgraph.electrical.signal_sources.source;aspect=fixed;points=[[0.5,0,0],[1,0.5,0],[0.5,1,0],[0,0.5,0]];elSignalType=dc1;direction=north;fillColor=#dae8fc;strokeColor=#6c8ebf;" parent="1" vertex="1">
          <mxGeometry x="90" y="525" width="60" height="60" as="geometry" />
        </mxCell>
        <mxCell id="BvzGJXMLHEj37eEvo-op-19" style="edgeStyle=orthogonalEdgeStyle;rounded=0;orthogonalLoop=1;jettySize=auto;html=1;exitX=1;exitY=0.5;exitDx=0;exitDy=0;exitPerimeter=0;endArrow=none;endFill=0;" parent="1" source="BvzGJXMLHEj37eEvo-op-15" edge="1">
          <mxGeometry relative="1" as="geometry">
            <mxPoint x="120" y="400" as="targetPoint" />
            <Array as="points">
              <mxPoint x="280" y="410" />
              <mxPoint x="120" y="410" />
            </Array>
          </mxGeometry>
        </mxCell>
        <mxCell id="BvzGJXMLHEj37eEvo-op-22" style="edgeStyle=orthogonalEdgeStyle;rounded=0;orthogonalLoop=1;jettySize=auto;html=1;exitX=0;exitY=0.5;exitDx=0;exitDy=0;exitPerimeter=0;endArrow=none;endFill=0;" parent="1" source="BvzGJXMLHEj37eEvo-op-15" edge="1">
          <mxGeometry relative="1" as="geometry">
            <mxPoint x="280" y="560" as="targetPoint" />
          </mxGeometry>
        </mxCell>
        <mxCell id="BvzGJXMLHEj37eEvo-op-15" value="" style="pointerEvents=1;verticalLabelPosition=bottom;shadow=0;dashed=0;align=center;html=1;verticalAlign=top;shape=mxgraph.electrical.signal_sources.source;aspect=fixed;points=[[0.5,0,0],[1,0.5,0],[0.5,1,0],[0,0.5,0]];elSignalType=dc1;direction=north;fillColor=#dae8fc;strokeColor=#6c8ebf;" parent="1" vertex="1">
          <mxGeometry x="250" y="450" width="60" height="60" as="geometry" />
        </mxCell>
        <mxCell id="BvzGJXMLHEj37eEvo-op-21" style="edgeStyle=orthogonalEdgeStyle;rounded=0;orthogonalLoop=1;jettySize=auto;html=1;exitX=1;exitY=0.5;exitDx=0;exitDy=0;exitPerimeter=0;endArrow=oval;endFill=1;" parent="1" source="BvzGJXMLHEj37eEvo-op-16" edge="1">
          <mxGeometry relative="1" as="geometry">
            <mxPoint x="280" y="560" as="targetPoint" />
          </mxGeometry>
        </mxCell>
        <mxCell id="BvzGJXMLHEj37eEvo-op-16" value="" style="pointerEvents=1;verticalLabelPosition=bottom;shadow=0;dashed=0;align=center;html=1;verticalAlign=top;shape=mxgraph.electrical.signal_sources.source;aspect=fixed;points=[[0.5,0,0],[1,0.5,0],[0.5,1,0],[0,0.5,0]];elSignalType=dc1;direction=north;fillColor=#dae8fc;strokeColor=#6c8ebf;" parent="1" vertex="1">
          <mxGeometry x="250" y="610" width="60" height="60" as="geometry" />
        </mxCell>
        <mxCell id="BvzGJXMLHEj37eEvo-op-35" value="1k" style="text;html=1;align=center;verticalAlign=middle;resizable=0;points=[];autosize=1;strokeColor=none;fillColor=none;" parent="1" vertex="1">
          <mxGeometry x="394" y="615" width="40" height="30" as="geometry" />
        </mxCell>
        <mxCell id="BvzGJXMLHEj37eEvo-op-36" value="10mA" style="text;html=1;align=center;verticalAlign=middle;resizable=0;points=[];autosize=1;strokeColor=none;fillColor=none;" parent="1" vertex="1">
          <mxGeometry x="220" y="660" width="50" height="30" as="geometry" />
        </mxCell>
        <mxCell id="BvzGJXMLHEj37eEvo-op-37" value="20mA" style="text;html=1;align=center;verticalAlign=middle;resizable=0;points=[];autosize=1;strokeColor=none;fillColor=none;" parent="1" vertex="1">
          <mxGeometry x="220" y="495" width="50" height="30" as="geometry" />
        </mxCell>
        <mxCell id="BvzGJXMLHEj37eEvo-op-38" value="15mA" style="text;html=1;align=center;verticalAlign=middle;resizable=0;points=[];autosize=1;strokeColor=none;fillColor=none;" parent="1" vertex="1">
          <mxGeometry x="60" y="570" width="50" height="30" as="geometry" />
        </mxCell>
        <mxCell id="BvzGJXMLHEj37eEvo-op-39" value="10V&lt;br&gt;" style="text;html=1;align=center;verticalAlign=middle;resizable=0;points=[];autosize=1;strokeColor=none;fillColor=none;" parent="1" vertex="1">
          <mxGeometry x="60" y="245" width="40" height="30" as="geometry" />
        </mxCell>
        <mxCell id="BvzGJXMLHEj37eEvo-op-40" value="5k&lt;br&gt;" style="text;html=1;align=center;verticalAlign=middle;resizable=0;points=[];autosize=1;strokeColor=none;fillColor=none;" parent="1" vertex="1">
          <mxGeometry x="280" y="305" width="40" height="30" as="geometry" />
        </mxCell>
        <mxCell id="BvzGJXMLHEj37eEvo-op-41" value="2k" style="text;html=1;align=center;verticalAlign=middle;resizable=0;points=[];autosize=1;strokeColor=none;fillColor=none;" parent="1" vertex="1">
          <mxGeometry x="394" y="340" width="40" height="30" as="geometry" />
        </mxCell>
        <mxCell id="BvzGJXMLHEj37eEvo-op-43" value="30M&lt;br&gt;" style="text;html=1;align=center;verticalAlign=middle;resizable=0;points=[];autosize=1;strokeColor=none;fillColor=none;" parent="1" vertex="1">
          <mxGeometry x="550" y="410" width="50" height="30" as="geometry" />
        </mxCell>
      </root>
    </mxGraphModel>
  </diagram>
  <diagram name="task_denotes" id="VhM2pMpWq_UxVTyDHsgJ">
    <mxGraphModel dx="956" dy="552" grid="1" gridSize="10" guides="1" tooltips="1" connect="1" arrows="0" fold="1" page="1" pageScale="1" pageWidth="827" pageHeight="1169" math="0" shadow="0">
      <root>
        <mxCell id="HTokSZlriJDabIG8ZDov-0" />
        <mxCell id="HTokSZlriJDabIG8ZDov-1" parent="HTokSZlriJDabIG8ZDov-0" />
        <mxCell id="HTokSZlriJDabIG8ZDov-2" style="edgeStyle=orthogonalEdgeStyle;rounded=0;orthogonalLoop=1;jettySize=auto;html=1;exitX=0.58;exitY=0.935;exitDx=0;exitDy=0;exitPerimeter=0;endArrow=none;endFill=0;" edge="1" parent="HTokSZlriJDabIG8ZDov-1" source="HTokSZlriJDabIG8ZDov-4">
          <mxGeometry relative="1" as="geometry">
            <mxPoint x="120.47619047619048" y="400" as="targetPoint" />
          </mxGeometry>
        </mxCell>
        <mxCell id="HTokSZlriJDabIG8ZDov-3" style="edgeStyle=orthogonalEdgeStyle;rounded=0;orthogonalLoop=1;jettySize=auto;html=1;exitX=0.58;exitY=0.135;exitDx=0;exitDy=0;exitPerimeter=0;entryX=0;entryY=0.5;entryDx=0;entryDy=0;entryPerimeter=0;endArrow=none;endFill=0;" edge="1" parent="HTokSZlriJDabIG8ZDov-1" source="HTokSZlriJDabIG8ZDov-4" target="HTokSZlriJDabIG8ZDov-12">
          <mxGeometry relative="1" as="geometry">
            <Array as="points">
              <mxPoint x="121" y="240" />
              <mxPoint x="280" y="240" />
            </Array>
          </mxGeometry>
        </mxCell>
        <mxCell id="HTokSZlriJDabIG8ZDov-4" value="" style="pointerEvents=1;verticalLabelPosition=bottom;shadow=0;dashed=0;align=center;html=1;verticalAlign=top;shape=mxgraph.electrical.signal_sources.dc_source_1;fillColor=#f8cecc;strokeColor=#b85450;" vertex="1" parent="HTokSZlriJDabIG8ZDov-1">
          <mxGeometry x="80" y="275" width="70" height="75" as="geometry" />
        </mxCell>
        <mxCell id="HTokSZlriJDabIG8ZDov-5" style="edgeStyle=orthogonalEdgeStyle;rounded=0;orthogonalLoop=1;jettySize=auto;html=1;exitX=0.5;exitY=1;exitDx=0;exitDy=0;endArrow=oval;endFill=1;" edge="1" parent="HTokSZlriJDabIG8ZDov-1" source="HTokSZlriJDabIG8ZDov-7">
          <mxGeometry relative="1" as="geometry">
            <mxPoint x="390" y="560" as="targetPoint" />
            <Array as="points">
              <mxPoint x="535" y="560" />
            </Array>
          </mxGeometry>
        </mxCell>
        <mxCell id="HTokSZlriJDabIG8ZDov-6" style="edgeStyle=orthogonalEdgeStyle;rounded=0;orthogonalLoop=1;jettySize=auto;html=1;exitX=0.5;exitY=0;exitDx=0;exitDy=0;endArrow=oval;endFill=1;" edge="1" parent="HTokSZlriJDabIG8ZDov-1" source="HTokSZlriJDabIG8ZDov-7">
          <mxGeometry relative="1" as="geometry">
            <mxPoint x="390" y="240" as="targetPoint" />
            <Array as="points">
              <mxPoint x="535" y="240" />
              <mxPoint x="390" y="240" />
            </Array>
          </mxGeometry>
        </mxCell>
        <mxCell id="HTokSZlriJDabIG8ZDov-7" value="V" style="verticalLabelPosition=middle;shadow=0;dashed=0;align=center;html=1;verticalAlign=middle;strokeWidth=1;shape=ellipse;aspect=fixed;fontSize=50;fillColor=#bac8d3;strokeColor=#23445d;" vertex="1" parent="HTokSZlriJDabIG8ZDov-1">
          <mxGeometry x="500" y="360" width="70" height="70" as="geometry" />
        </mxCell>
        <mxCell id="HTokSZlriJDabIG8ZDov-8" style="edgeStyle=orthogonalEdgeStyle;rounded=0;orthogonalLoop=1;jettySize=auto;html=1;exitX=0;exitY=0.5;exitDx=0;exitDy=0;exitPerimeter=0;endArrow=none;endFill=0;" edge="1" parent="HTokSZlriJDabIG8ZDov-1" source="HTokSZlriJDabIG8ZDov-10">
          <mxGeometry relative="1" as="geometry">
            <mxPoint x="280" y="560" as="targetPoint" />
            <Array as="points">
              <mxPoint x="390" y="560" />
            </Array>
          </mxGeometry>
        </mxCell>
        <mxCell id="HTokSZlriJDabIG8ZDov-9" style="edgeStyle=orthogonalEdgeStyle;rounded=0;orthogonalLoop=1;jettySize=auto;html=1;exitX=1;exitY=0.5;exitDx=0;exitDy=0;exitPerimeter=0;endArrow=oval;endFill=1;" edge="1" parent="HTokSZlriJDabIG8ZDov-1" source="HTokSZlriJDabIG8ZDov-10">
          <mxGeometry relative="1" as="geometry">
            <mxPoint x="280" y="690" as="targetPoint" />
            <Array as="points">
              <mxPoint x="390" y="690" />
            </Array>
          </mxGeometry>
        </mxCell>
        <mxCell id="HTokSZlriJDabIG8ZDov-10" value="" style="pointerEvents=1;verticalLabelPosition=bottom;shadow=0;dashed=0;align=center;html=1;verticalAlign=top;shape=mxgraph.electrical.resistors.resistor_1;direction=south;fillColor=#fff2cc;strokeColor=#d6b656;" vertex="1" parent="HTokSZlriJDabIG8ZDov-1">
          <mxGeometry x="380" y="580" width="20" height="100" as="geometry" />
        </mxCell>
        <mxCell id="HTokSZlriJDabIG8ZDov-11" style="edgeStyle=orthogonalEdgeStyle;rounded=0;orthogonalLoop=1;jettySize=auto;html=1;exitX=1;exitY=0.5;exitDx=0;exitDy=0;exitPerimeter=0;endArrow=oval;endFill=1;" edge="1" parent="HTokSZlriJDabIG8ZDov-1" source="HTokSZlriJDabIG8ZDov-12">
          <mxGeometry relative="1" as="geometry">
            <mxPoint x="280" y="410" as="targetPoint" />
          </mxGeometry>
        </mxCell>
        <mxCell id="HTokSZlriJDabIG8ZDov-12" value="" style="pointerEvents=1;verticalLabelPosition=bottom;shadow=0;dashed=0;align=center;html=1;verticalAlign=top;shape=mxgraph.electrical.resistors.resistor_1;direction=south;fillColor=#fff2cc;strokeColor=#d6b656;" vertex="1" parent="HTokSZlriJDabIG8ZDov-1">
          <mxGeometry x="270" y="270" width="20" height="100" as="geometry" />
        </mxCell>
        <mxCell id="HTokSZlriJDabIG8ZDov-13" style="edgeStyle=orthogonalEdgeStyle;rounded=0;orthogonalLoop=1;jettySize=auto;html=1;exitX=0;exitY=0.5;exitDx=0;exitDy=0;exitPerimeter=0;endArrow=oval;endFill=1;" edge="1" parent="HTokSZlriJDabIG8ZDov-1" source="HTokSZlriJDabIG8ZDov-15">
          <mxGeometry relative="1" as="geometry">
            <mxPoint x="280" y="240" as="targetPoint" />
            <Array as="points">
              <mxPoint x="390" y="240" />
              <mxPoint x="280" y="240" />
            </Array>
          </mxGeometry>
        </mxCell>
        <mxCell id="HTokSZlriJDabIG8ZDov-14" style="edgeStyle=orthogonalEdgeStyle;rounded=0;orthogonalLoop=1;jettySize=auto;html=1;exitX=1;exitY=0.5;exitDx=0;exitDy=0;exitPerimeter=0;endArrow=none;endFill=0;" edge="1" parent="HTokSZlriJDabIG8ZDov-1" source="HTokSZlriJDabIG8ZDov-15">
          <mxGeometry relative="1" as="geometry">
            <mxPoint x="390.2857142857142" y="560" as="targetPoint" />
          </mxGeometry>
        </mxCell>
        <mxCell id="HTokSZlriJDabIG8ZDov-15" value="" style="pointerEvents=1;verticalLabelPosition=bottom;shadow=0;dashed=0;align=center;html=1;verticalAlign=top;shape=mxgraph.electrical.resistors.resistor_1;direction=south;fillColor=#fff2cc;strokeColor=#d6b656;" vertex="1" parent="HTokSZlriJDabIG8ZDov-1">
          <mxGeometry x="380" y="305" width="20" height="100" as="geometry" />
        </mxCell>
        <mxCell id="HTokSZlriJDabIG8ZDov-16" style="edgeStyle=orthogonalEdgeStyle;rounded=0;orthogonalLoop=1;jettySize=auto;html=1;exitX=0;exitY=0.5;exitDx=0;exitDy=0;exitPerimeter=0;entryX=0;entryY=0.5;entryDx=0;entryDy=0;entryPerimeter=0;endArrow=none;endFill=0;" edge="1" parent="HTokSZlriJDabIG8ZDov-1" source="HTokSZlriJDabIG8ZDov-18" target="HTokSZlriJDabIG8ZDov-23">
          <mxGeometry relative="1" as="geometry" />
        </mxCell>
        <mxCell id="HTokSZlriJDabIG8ZDov-17" style="edgeStyle=orthogonalEdgeStyle;rounded=0;orthogonalLoop=1;jettySize=auto;html=1;exitX=1;exitY=0.5;exitDx=0;exitDy=0;exitPerimeter=0;endArrow=oval;endFill=1;" edge="1" parent="HTokSZlriJDabIG8ZDov-1" source="HTokSZlriJDabIG8ZDov-18">
          <mxGeometry relative="1" as="geometry">
            <mxPoint x="120" y="410" as="targetPoint" />
          </mxGeometry>
        </mxCell>
        <mxCell id="HTokSZlriJDabIG8ZDov-18" value="" style="pointerEvents=1;verticalLabelPosition=bottom;shadow=0;dashed=0;align=center;html=1;verticalAlign=top;shape=mxgraph.electrical.signal_sources.source;aspect=fixed;points=[[0.5,0,0],[1,0.5,0],[0.5,1,0],[0,0.5,0]];elSignalType=dc1;direction=north;fillColor=#dae8fc;strokeColor=#6c8ebf;" vertex="1" parent="HTokSZlriJDabIG8ZDov-1">
          <mxGeometry x="90" y="525" width="60" height="60" as="geometry" />
        </mxCell>
        <mxCell id="HTokSZlriJDabIG8ZDov-19" style="edgeStyle=orthogonalEdgeStyle;rounded=0;orthogonalLoop=1;jettySize=auto;html=1;exitX=1;exitY=0.5;exitDx=0;exitDy=0;exitPerimeter=0;endArrow=none;endFill=0;" edge="1" parent="HTokSZlriJDabIG8ZDov-1" source="HTokSZlriJDabIG8ZDov-21">
          <mxGeometry relative="1" as="geometry">
            <mxPoint x="120" y="400" as="targetPoint" />
            <Array as="points">
              <mxPoint x="280" y="410" />
              <mxPoint x="120" y="410" />
            </Array>
          </mxGeometry>
        </mxCell>
        <mxCell id="HTokSZlriJDabIG8ZDov-20" style="edgeStyle=orthogonalEdgeStyle;rounded=0;orthogonalLoop=1;jettySize=auto;html=1;exitX=0;exitY=0.5;exitDx=0;exitDy=0;exitPerimeter=0;endArrow=none;endFill=0;" edge="1" parent="HTokSZlriJDabIG8ZDov-1" source="HTokSZlriJDabIG8ZDov-21">
          <mxGeometry relative="1" as="geometry">
            <mxPoint x="280" y="560" as="targetPoint" />
          </mxGeometry>
        </mxCell>
        <mxCell id="HTokSZlriJDabIG8ZDov-21" value="" style="pointerEvents=1;verticalLabelPosition=bottom;shadow=0;dashed=0;align=center;html=1;verticalAlign=top;shape=mxgraph.electrical.signal_sources.source;aspect=fixed;points=[[0.5,0,0],[1,0.5,0],[0.5,1,0],[0,0.5,0]];elSignalType=dc1;direction=north;fillColor=#dae8fc;strokeColor=#6c8ebf;" vertex="1" parent="HTokSZlriJDabIG8ZDov-1">
          <mxGeometry x="250" y="450" width="60" height="60" as="geometry" />
        </mxCell>
        <mxCell id="HTokSZlriJDabIG8ZDov-22" style="edgeStyle=orthogonalEdgeStyle;rounded=0;orthogonalLoop=1;jettySize=auto;html=1;exitX=1;exitY=0.5;exitDx=0;exitDy=0;exitPerimeter=0;endArrow=oval;endFill=1;" edge="1" parent="HTokSZlriJDabIG8ZDov-1" source="HTokSZlriJDabIG8ZDov-23">
          <mxGeometry relative="1" as="geometry">
            <mxPoint x="280" y="560" as="targetPoint" />
          </mxGeometry>
        </mxCell>
        <mxCell id="HTokSZlriJDabIG8ZDov-23" value="" style="pointerEvents=1;verticalLabelPosition=bottom;shadow=0;dashed=0;align=center;html=1;verticalAlign=top;shape=mxgraph.electrical.signal_sources.source;aspect=fixed;points=[[0.5,0,0],[1,0.5,0],[0.5,1,0],[0,0.5,0]];elSignalType=dc1;direction=north;fillColor=#dae8fc;strokeColor=#6c8ebf;" vertex="1" parent="HTokSZlriJDabIG8ZDov-1">
          <mxGeometry x="250" y="610" width="60" height="60" as="geometry" />
        </mxCell>
        <mxCell id="y8FJZV8Rn1BcKpPnFpiJ-0" value="E&lt;sub&gt;1&lt;/sub&gt;" style="text;html=1;align=center;verticalAlign=middle;resizable=0;points=[];autosize=1;strokeColor=none;fillColor=none;" vertex="1" parent="HTokSZlriJDabIG8ZDov-1">
          <mxGeometry x="140" y="290" width="40" height="30" as="geometry" />
        </mxCell>
        <mxCell id="y8FJZV8Rn1BcKpPnFpiJ-1" value="&lt;sub style=&quot;border-color: var(--border-color); color: rgb(0, 0, 0); font-family: Helvetica; font-style: normal; font-variant-ligatures: normal; font-variant-caps: normal; font-weight: 400; letter-spacing: normal; orphans: 2; text-align: center; text-indent: 0px; text-transform: none; widows: 2; word-spacing: 0px; -webkit-text-stroke-width: 0px; background-color: rgb(251, 251, 251); text-decoration-thickness: initial; text-decoration-style: initial; text-decoration-color: initial;&quot;&gt;&lt;span style=&quot;font-size: 12px;&quot;&gt;J&lt;/span&gt;1&lt;/sub&gt;" style="text;whiteSpace=wrap;html=1;" vertex="1" parent="HTokSZlriJDabIG8ZDov-1">
          <mxGeometry x="145" y="555" width="30" height="25" as="geometry" />
        </mxCell>
        <mxCell id="y8FJZV8Rn1BcKpPnFpiJ-2" value="&lt;sub style=&quot;border-color: var(--border-color); color: rgb(0, 0, 0); font-family: Helvetica; font-style: normal; font-variant-ligatures: normal; font-variant-caps: normal; font-weight: 400; letter-spacing: normal; orphans: 2; text-align: center; text-indent: 0px; text-transform: none; widows: 2; word-spacing: 0px; -webkit-text-stroke-width: 0px; background-color: rgb(251, 251, 251); text-decoration-thickness: initial; text-decoration-style: initial; text-decoration-color: initial;&quot;&gt;&lt;span style=&quot;font-size: 12px;&quot;&gt;J&lt;sub&gt;2&lt;/sub&gt;&lt;/span&gt;&lt;/sub&gt;" style="text;whiteSpace=wrap;html=1;" vertex="1" parent="HTokSZlriJDabIG8ZDov-1">
          <mxGeometry x="310" y="480" width="50" height="40" as="geometry" />
        </mxCell>
        <mxCell id="y8FJZV8Rn1BcKpPnFpiJ-3" value="&lt;sub style=&quot;border-color: var(--border-color); color: rgb(0, 0, 0); font-family: Helvetica; font-style: normal; font-variant-ligatures: normal; font-variant-caps: normal; font-weight: 400; letter-spacing: normal; orphans: 2; text-align: center; text-indent: 0px; text-transform: none; widows: 2; word-spacing: 0px; -webkit-text-stroke-width: 0px; background-color: rgb(251, 251, 251); text-decoration-thickness: initial; text-decoration-style: initial; text-decoration-color: initial;&quot;&gt;&lt;span style=&quot;font-size: 12px;&quot;&gt;J&lt;/span&gt;3&lt;/sub&gt;" style="text;whiteSpace=wrap;html=1;" vertex="1" parent="HTokSZlriJDabIG8ZDov-1">
          <mxGeometry x="310" y="640" width="20" height="30" as="geometry" />
        </mxCell>
        <mxCell id="y8FJZV8Rn1BcKpPnFpiJ-4" value="&lt;sub style=&quot;border-color: var(--border-color); color: rgb(0, 0, 0); font-family: Helvetica; font-style: normal; font-variant-ligatures: normal; font-variant-caps: normal; font-weight: 400; letter-spacing: normal; orphans: 2; text-align: center; text-indent: 0px; text-transform: none; widows: 2; word-spacing: 0px; -webkit-text-stroke-width: 0px; background-color: rgb(251, 251, 251); text-decoration-thickness: initial; text-decoration-style: initial; text-decoration-color: initial;&quot;&gt;&lt;span style=&quot;font-size: 12px;&quot;&gt;R&lt;/span&gt;1&lt;/sub&gt;" style="text;whiteSpace=wrap;html=1;" vertex="1" parent="HTokSZlriJDabIG8ZDov-1">
          <mxGeometry x="250" y="300" width="20" height="20" as="geometry" />
        </mxCell>
        <mxCell id="y8FJZV8Rn1BcKpPnFpiJ-5" value="&lt;sub style=&quot;border-color: var(--border-color); color: rgb(0, 0, 0); font-family: Helvetica; font-style: normal; font-variant-ligatures: normal; font-variant-caps: normal; font-weight: 400; letter-spacing: normal; orphans: 2; text-align: center; text-indent: 0px; text-transform: none; widows: 2; word-spacing: 0px; -webkit-text-stroke-width: 0px; background-color: rgb(251, 251, 251); text-decoration-thickness: initial; text-decoration-style: initial; text-decoration-color: initial;&quot;&gt;&lt;span style=&quot;font-size: 12px;&quot;&gt;R&lt;/span&gt;2&lt;/sub&gt;" style="text;whiteSpace=wrap;html=1;" vertex="1" parent="HTokSZlriJDabIG8ZDov-1">
          <mxGeometry x="360" y="340" width="20" height="20" as="geometry" />
        </mxCell>
        <mxCell id="y8FJZV8Rn1BcKpPnFpiJ-6" value="&lt;sub style=&quot;border-color: var(--border-color); color: rgb(0, 0, 0); font-family: Helvetica; font-style: normal; font-variant-ligatures: normal; font-variant-caps: normal; font-weight: 400; letter-spacing: normal; orphans: 2; text-align: center; text-indent: 0px; text-transform: none; widows: 2; word-spacing: 0px; -webkit-text-stroke-width: 0px; background-color: rgb(251, 251, 251); text-decoration-thickness: initial; text-decoration-style: initial; text-decoration-color: initial;&quot;&gt;&lt;span style=&quot;font-size: 12px;&quot;&gt;R&lt;/span&gt;3&lt;/sub&gt;" style="text;whiteSpace=wrap;html=1;" vertex="1" parent="HTokSZlriJDabIG8ZDov-1">
          <mxGeometry x="360" y="615" width="20" height="25" as="geometry" />
        </mxCell>
      </root>
    </mxGraphModel>
  </diagram>
</mxfile>
